<svg width="19" height="19" viewBox="0 0 19 19" fill="none" xmlns="http://www.w3.org/2000/svg">
<path d="M4.42329 1.89375C4.35688 1.80831 4.27305 1.73799 4.17737 1.68745C4.08169 1.63691 3.97635 1.6073 3.86835 1.6006C3.76035 1.59389 3.65216 1.61025 3.55096 1.64857C3.44977 1.68689 3.35788 1.74631 3.28142 1.82287L2.11817 2.98725C1.57479 3.53175 1.37454 4.30237 1.61192 4.9785C2.59712 7.77703 4.19975 10.3179 6.30092 12.4125C8.39558 14.5136 10.9364 16.1163 13.7349 17.1015C14.411 17.3389 15.1817 17.1386 15.7262 16.5952L16.8894 15.432C16.966 15.3555 17.0254 15.2636 17.0637 15.1624C17.102 15.0613 17.1184 14.9531 17.1117 14.8451C17.105 14.7371 17.0754 14.6317 17.0248 14.536C16.9743 14.4404 16.904 14.3565 16.8185 14.2901L14.2232 12.2719C14.1319 12.2011 14.0257 12.1519 13.9127 12.1282C13.7997 12.1044 13.6827 12.1066 13.5707 12.1346L11.1069 12.75C10.7781 12.8322 10.4335 12.8278 10.1068 12.7373C9.78017 12.6468 9.48249 12.4733 9.24279 12.2336L6.47979 9.4695C6.23991 9.22991 6.06616 8.93229 5.97547 8.60561C5.88478 8.27893 5.88024 7.93433 5.96229 7.60537L6.57879 5.14162C6.60681 5.02957 6.60902 4.91261 6.58524 4.79958C6.56147 4.68655 6.51233 4.58039 6.44154 4.48912L4.42329 1.89375ZM2.43204 0.974621C2.62891 0.777689 2.86542 0.624893 3.12587 0.526377C3.38632 0.427862 3.66475 0.385882 3.94267 0.403226C4.22059 0.420569 4.49164 0.496838 4.73782 0.62697C4.984 0.757101 5.19968 0.938116 5.37054 1.158L7.38879 3.75225C7.75892 4.22812 7.88942 4.848 7.74317 5.433L7.12779 7.89675C7.09598 8.02435 7.09769 8.15802 7.13278 8.28477C7.16787 8.41152 7.23513 8.52704 7.32804 8.62012L10.0922 11.3842C10.1854 11.4773 10.3011 11.5447 10.428 11.5798C10.555 11.6149 10.6889 11.6165 10.8167 11.5845L13.2793 10.9691C13.568 10.8969 13.8693 10.8913 14.1605 10.9527C14.4517 11.0141 14.7251 11.1409 14.96 11.3235L17.5543 13.3417C18.4869 14.0674 18.5724 15.4455 17.7377 16.2791L16.5744 17.4424C15.7419 18.2749 14.4977 18.6405 13.3378 18.2321C10.3691 17.1876 7.67372 15.4881 5.45154 13.2596C3.22324 11.0378 1.52373 8.34276 0.479042 5.3745C0.0717915 4.21575 0.437417 2.97037 1.26992 2.13787L2.43317 0.974621H2.43204Z" fill="#CAFB42"/>
</svg>
