<svg width="199" height="67" viewBox="0 0 199 67" fill="none" xmlns="http://www.w3.org/2000/svg">
<path d="M29.0737 0.708378C27.8604 -0.275066 13.9059 8.78775 10.7981 24.2602C10.2489 26.9987 8.17628 37.3152 14.2556 44.6618C15.0934 45.6745 17.8687 48.9349 22.6532 50.1356C23.7753 50.4177 30.0552 51.9923 34.6681 47.9742C39.8699 43.4547 38.4678 35.7622 38.2908 34.8706C37.305 29.8994 33.8603 26.5168 30.7171 23.4259C26.8262 19.6002 25.5475 20.0109 24.4608 17.7868C21.1621 11.0432 30.17 1.59888 29.0737 0.708378Z" fill="#CAFB42"/>
<path fill-rule="evenodd" clip-rule="evenodd" d="M54.425 20.1108C50.9235 9.51882 41.2879 -1.66974 34.8321 0.207445C31.4765 1.18549 29.3953 5.57208 28.742 8.50079C27.8248 12.6367 29.2902 16.0279 29.73 16.9595C30.8534 19.3365 32.212 20.3275 33.9673 21.6079C35.4689 22.7032 37.2607 24.0103 39.4439 26.5778L39.4561 26.5922C41.6385 29.1595 43.5763 31.439 44.2187 35.0365C44.34 35.7141 45.4342 42.2729 41.9134 45.3205C41.3361 45.8192 40.7154 46.1554 40.1701 46.4508C39.3282 46.907 38.666 47.2657 38.6211 47.9747C38.5578 48.9474 39.7153 49.933 40.7612 50.2939C41.8072 50.6549 43.2404 50.5749 45.5361 49.1332C52.6088 44.6958 55.0837 37.0293 55.0837 37.0293C57.4727 29.6275 55.4237 23.1368 54.425 20.1108ZM40.7035 13.4966C40.7035 14.3513 40.0157 15.0442 39.1673 15.0442C38.3189 15.0442 37.6311 14.3513 37.6311 13.4966C37.6311 12.6419 38.3189 11.949 39.1673 11.949C40.0157 11.949 40.7035 12.6419 40.7035 13.4966Z" fill="#CAFB42"/>
<path d="M14.1559 66.07C15.1709 66.07 15.9269 65.587 15.9269 64.691C15.9269 63.851 15.3319 63.494 14.4569 63.291L13.9249 63.165C13.4349 63.053 13.1339 62.927 13.1339 62.584C13.1339 62.311 13.3929 62.157 13.7499 62.157C14.2889 62.157 14.8349 62.423 15.1429 62.913L15.8219 62.15C15.4299 61.59 14.7229 61.254 13.8409 61.254C12.8889 61.254 12.0979 61.737 12.0979 62.654C12.0979 63.543 12.7839 63.865 13.5119 64.012L13.9669 64.11C14.5899 64.236 14.8979 64.355 14.8979 64.719C14.8979 65.041 14.6039 65.167 14.1979 65.167C13.6379 65.167 12.9589 64.908 12.6439 64.32L11.9859 65.09C12.4199 65.776 13.2529 66.07 14.1559 66.07ZM20.0501 66V64.243H20.4141C20.8271 64.243 21.0371 64.355 21.2191 64.67L22.0101 66H23.1651L22.4231 64.782C22.2201 64.453 22.0241 64.222 21.6531 64.124C22.4161 64.033 22.9831 63.606 22.9831 62.773C22.9831 61.779 22.2411 61.31 21.2261 61.31H19.0491V66H20.0501ZM21.1911 62.199C21.6251 62.199 21.9331 62.367 21.9331 62.822C21.9331 63.263 21.6251 63.438 21.1911 63.438H20.0501V62.199H21.1911ZM27.1031 66V61.31H26.1021V66H27.1031ZM36.3456 66.07C37.3606 66.07 38.1166 65.587 38.1166 64.691C38.1166 63.851 37.5216 63.494 36.6466 63.291L36.1146 63.165C35.6246 63.053 35.3236 62.927 35.3236 62.584C35.3236 62.311 35.5826 62.157 35.9396 62.157C36.4786 62.157 37.0246 62.423 37.3326 62.913L38.0116 62.15C37.6196 61.59 36.9126 61.254 36.0306 61.254C35.0786 61.254 34.2876 61.737 34.2876 62.654C34.2876 63.543 34.9736 63.865 35.7016 64.012L36.1566 64.11C36.7796 64.236 37.0876 64.355 37.0876 64.719C37.0876 65.041 36.7936 65.167 36.3876 65.167C35.8276 65.167 35.1486 64.908 34.8336 64.32L34.1756 65.09C34.6096 65.776 35.4426 66.07 36.3456 66.07ZM41.782 66L42.16 64.957H44.05L44.421 66H45.52L43.763 61.31H42.475L40.718 66H41.782ZM42.825 63.102L43.105 62.108L43.385 63.102L43.742 64.11H42.461L42.825 63.102ZM49.2997 66V64.243H49.6637C50.0767 64.243 50.2867 64.355 50.4687 64.67L51.2597 66H52.4147L51.6727 64.782C51.4697 64.453 51.2737 64.222 50.9027 64.124C51.6657 64.033 52.2327 63.606 52.2327 62.773C52.2327 61.779 51.4907 61.31 50.4757 61.31H48.2987V66H49.2997ZM50.4407 62.199C50.8747 62.199 51.1827 62.367 51.1827 62.822C51.1827 63.263 50.8747 63.438 50.4407 63.438H49.2997V62.199H50.4407ZM56.0043 66L56.3823 64.957H58.2723L58.6434 66H59.7424L57.9853 61.31H56.6973L54.9403 66H56.0043ZM57.0473 63.102L57.3273 62.108L57.6073 63.102L57.9643 64.11H56.6833L57.0473 63.102ZM64.796 66C65.79 66 66.441 65.65 66.441 64.775C66.441 64.11 66.021 63.634 64.831 63.592C65.559 63.557 66.273 63.298 66.273 62.5C66.273 61.835 65.86 61.31 64.824 61.31H62.521V66H64.796ZM64.558 62.199C64.957 62.199 65.216 62.332 65.216 62.703C65.216 63.081 64.964 63.207 64.572 63.207H63.522V62.199H64.558ZM64.663 64.012C65.139 64.012 65.412 64.18 65.412 64.558C65.412 64.936 65.181 65.111 64.649 65.111H63.522V64.012H64.663ZM70.6024 66V64.075H72.6044V66H73.6054V61.31H72.6044V63.186H70.6024V61.31H69.6014V66H70.6024ZM80.4881 66V65.111H78.0451V64.075H80.0891V63.186H78.0451V62.199H80.4881V61.31H77.0441V66H80.4881ZM85.5119 66.07C86.5269 66.07 87.2829 65.587 87.2829 64.691C87.2829 63.851 86.6879 63.494 85.8129 63.291L85.2809 63.165C84.7909 63.053 84.4899 62.927 84.4899 62.584C84.4899 62.311 84.7489 62.157 85.1059 62.157C85.6449 62.157 86.1909 62.423 86.4989 62.913L87.1779 62.15C86.7859 61.59 86.0789 61.254 85.1969 61.254C84.2449 61.254 83.4539 61.737 83.4539 62.654C83.4539 63.543 84.1399 63.865 84.8679 64.012L85.3229 64.11C85.9459 64.236 86.2539 64.355 86.2539 64.719C86.2539 65.041 85.9599 65.167 85.5539 65.167C84.9939 65.167 84.3149 64.908 83.9999 64.32L83.3419 65.09C83.7759 65.776 84.6089 66.07 85.5119 66.07ZM92.3905 66L92.9995 63.543L93.2515 62.024L93.5035 63.543L94.1055 66H95.4565L96.5905 61.31H95.4425L94.9385 63.872L94.7565 65.293L94.5185 63.984L93.9165 61.31H92.5935L91.9845 63.984L91.7395 65.293L91.5645 63.872L91.0675 61.31H89.9125L91.0395 66H92.3905ZM99.8402 66L100.218 64.957H102.108L102.479 66H103.578L101.821 61.31H100.533L98.7762 66H99.8402ZM100.883 63.102L101.163 62.108L101.443 63.102L101.8 64.11H100.519L100.883 63.102ZM107.358 66V64.243H107.722C108.135 64.243 108.345 64.355 108.527 64.67L109.318 66H110.473L109.731 64.782C109.528 64.453 109.332 64.222 108.961 64.124C109.724 64.033 110.291 63.606 110.291 62.773C110.291 61.779 109.549 61.31 108.534 61.31H106.357V66H107.358ZM108.499 62.199C108.933 62.199 109.241 62.367 109.241 62.822C109.241 63.263 108.933 63.438 108.499 63.438H107.358V62.199H108.499ZM120.838 66V65.111H118.395V64.075H120.439V63.186H118.395V62.199H120.838V61.31H117.394V66H120.838ZM124.921 66V63.998L124.844 62.836L125.264 63.529L126.972 66H127.924V61.31H126.923V63.389L126.986 64.495L126.559 63.76L124.893 61.31H123.92V66H124.921ZM133.019 66.056C134.02 66.056 134.594 65.398 134.643 64.292L134.881 66H135.546V63.487H133.299V64.292H134.587C134.398 64.789 134.062 65.111 133.411 65.111C132.613 65.111 132.158 64.551 132.158 63.648C132.158 62.787 132.571 62.199 133.439 62.199C134.118 62.199 134.538 62.598 134.664 63.123L135.511 62.479C135.182 61.702 134.433 61.24 133.439 61.24C131.927 61.24 131.08 62.255 131.08 63.648C131.08 65.237 131.892 66.056 133.019 66.056ZM139.854 66V61.31H138.853V66H139.854ZM144.303 66V63.998L144.226 62.836L144.646 63.529L146.354 66H147.306V61.31H146.305V63.389L146.368 64.495L145.941 63.76L144.275 61.31H143.302V66H144.303ZM154.189 66V65.111H151.746V64.075H153.79V63.186H151.746V62.199H154.189V61.31H150.745V66H154.189ZM160.715 66V65.111H158.272V64.075H160.316V63.186H158.272V62.199H160.715V61.31H157.271V66H160.715ZM164.799 66V64.243H165.163C165.576 64.243 165.786 64.355 165.968 64.67L166.759 66H167.914L167.172 64.782C166.969 64.453 166.773 64.222 166.402 64.124C167.165 64.033 167.732 63.606 167.732 62.773C167.732 61.779 166.99 61.31 165.975 61.31H163.798V66H164.799ZM165.94 62.199C166.374 62.199 166.682 62.367 166.682 62.822C166.682 63.263 166.374 63.438 165.94 63.438H164.799V62.199H165.94ZM171.852 66V61.31H170.851V66H171.852ZM176.301 66V63.998L176.224 62.836L176.644 63.529L178.352 66H179.304V61.31H178.303V63.389L178.366 64.495L177.939 63.76L176.273 61.31H175.3V66H176.301ZM184.398 66.056C185.399 66.056 185.973 65.398 186.022 64.292L186.26 66H186.925V63.487H184.678V64.292H185.966C185.777 64.789 185.441 65.111 184.79 65.111C183.992 65.111 183.537 64.551 183.537 63.648C183.537 62.787 183.95 62.199 184.818 62.199C185.497 62.199 185.917 62.598 186.043 63.123L186.89 62.479C186.561 61.702 185.812 61.24 184.818 61.24C183.306 61.24 182.459 62.255 182.459 63.648C182.459 65.237 183.271 66.056 184.398 66.056Z" fill="#CAFB42"/>
<path d="M88.2086 15.0587C88.1061 14.3465 87.8549 13.6644 87.4716 13.0572C87.0764 12.4267 86.5669 11.8768 85.9697 11.4361C84.6606 10.4772 83.0828 9.96209 81.4642 9.96528C80.7448 9.96028 80.0274 10.0419 79.3272 10.2084C78.711 10.3497 78.1249 10.6011 77.5968 10.9509C77.1067 11.2792 76.702 11.7214 76.4168 12.2402C76.1136 12.8185 75.9636 13.4658 75.9813 14.1195C75.9813 15.0295 76.1769 15.7521 76.5681 16.2874C76.9677 16.8318 77.4802 17.2821 78.0699 17.607C78.7108 17.9629 79.3929 18.2377 80.1007 18.4251C80.843 18.6282 81.5657 18.8509 82.2687 19.0929L90.5462 21.8822C91.6897 22.287 92.7726 22.8481 93.7644 23.5498C94.7678 24.258 95.6476 25.129 96.368 26.1273C97.1258 27.1893 97.7099 28.3667 98.0984 29.6147C98.5203 30.9288 98.731 32.4058 98.7302 34.0456C98.7302 36.2697 98.324 38.3014 97.5116 40.1408C96.7231 41.9465 95.5578 43.5598 94.0948 44.8711C92.6309 46.1852 90.8751 47.2061 88.8276 47.9338C86.78 48.6615 84.5126 49.0253 82.0252 49.0253C80.357 49.0348 78.6941 48.8363 77.0744 48.4342C75.5824 48.0658 74.1488 47.4889 72.8156 46.7201C71.5649 46.0004 70.4284 45.0959 69.4439 44.0368C68.4884 43.0055 67.7252 41.8091 67.1911 40.505H64.0994V31.3719H74.9954V33.2524C74.9862 34.1108 75.1338 34.9636 75.4309 35.7683C75.7138 36.5255 76.1614 37.2094 76.7408 37.7697C77.3696 38.3647 78.1192 38.8149 78.9378 39.0893C79.8203 39.4027 80.8537 39.5594 82.0381 39.5594C83.8446 39.5594 85.2192 39.1397 86.1618 38.3004C87.1044 37.461 87.576 36.2938 87.5767 34.7989C87.5767 34.0301 87.4112 33.3882 87.0801 32.873C86.7464 32.355 86.3109 31.9114 85.8003 31.5697C85.2553 31.2035 84.6695 30.9032 84.0549 30.6749C83.4112 30.4321 82.779 30.2098 82.1582 30.0081L75.2657 27.7656C73.9439 27.3536 72.6758 26.7836 71.4885 26.0678C70.2756 25.3406 69.1886 24.4189 68.2703 23.339C67.3098 22.2018 66.5556 20.9032 66.0421 19.5025C65.4907 18.0385 65.215 16.366 65.215 14.4848C65.215 12.3018 65.6162 10.3565 66.4187 8.64898C67.1998 6.96735 68.3532 5.48852 69.7904 4.32615C71.2343 3.15466 72.9507 2.26524 74.9396 1.65788C76.9285 1.05053 79.1041 0.747205 81.4663 0.747926C83.2129 0.731578 84.954 0.949637 86.6434 1.39635C88.1314 1.7909 89.5628 2.37678 90.9023 3.13953C92.0835 3.8101 93.1591 4.654 94.0938 5.64353C94.9122 6.50423 95.5877 7.49202 96.0945 8.56901H99.1046V17.7269H88.2086V15.0587Z" fill="#CAFB42"/>
<path d="M125.683 15.0587C125.581 14.3464 125.329 13.6641 124.945 13.0572C124.55 12.4264 124.041 11.8764 123.443 11.4361C122.134 10.4771 120.556 9.96208 118.938 9.96528C118.218 9.96034 117.501 10.042 116.801 10.2084C116.185 10.3497 115.599 10.6011 115.07 10.9509C114.583 11.2799 114.18 11.722 113.897 12.2402C113.605 12.7654 113.46 13.3918 113.46 14.1195C113.46 15.0295 113.656 15.7521 114.047 16.2874C114.447 16.8316 114.959 17.2818 115.549 17.607C116.19 17.9631 116.873 18.2379 117.581 18.4251C118.323 18.6282 119.045 18.8509 119.748 19.0929L128.025 21.8822C129.169 22.2867 130.252 22.8478 131.243 23.5498C132.247 24.258 133.127 25.129 133.847 26.1273C134.605 27.1893 135.19 28.3666 135.578 29.6147C135.999 30.9288 136.21 32.4058 136.21 34.0456C136.21 36.2697 135.804 38.3014 134.991 40.1408C134.203 41.9465 133.038 43.5599 131.575 44.8711C130.11 46.1852 128.353 47.2061 126.307 47.9338C124.26 48.6614 121.993 49.0235 119.507 49.0199C117.839 49.0294 116.176 48.8309 114.557 48.4287C113.065 48.0602 111.631 47.4833 110.298 46.7147C109.047 45.995 107.911 45.0905 106.926 44.0313C105.971 43 105.207 41.8037 104.673 40.4996H101.573V31.3719H112.469V33.2524C112.46 34.1109 112.608 34.9638 112.906 35.7682C113.189 36.5253 113.636 37.2091 114.214 37.7697C114.843 38.3644 115.593 38.8146 116.411 39.0893C117.294 39.4027 118.327 39.5594 119.512 39.5594C121.318 39.5594 122.693 39.1397 123.635 38.3003C124.578 37.461 125.05 36.2938 125.05 34.7989C125.05 34.0301 124.885 33.3882 124.554 32.873C124.22 32.355 123.785 31.9114 123.275 31.5697C122.729 31.2037 122.143 30.9034 121.529 30.6749C120.885 30.4321 120.253 30.2098 119.633 30.0081L112.739 27.7656C111.418 27.3533 110.15 26.7834 108.962 26.0678C107.749 25.3406 106.662 24.4189 105.744 23.339C104.784 22.2018 104.03 20.9031 103.517 19.5025C102.964 18.0385 102.688 16.3659 102.689 14.4848C102.689 12.3018 103.09 10.3565 103.892 8.64898C104.673 6.96735 105.827 5.48852 107.264 4.32615C108.709 3.15466 110.425 2.26524 112.413 1.65788C114.401 1.05053 116.578 0.747205 118.944 0.747926C120.691 0.731578 122.432 0.949637 124.121 1.39635C125.609 1.7909 127.041 2.37678 128.38 3.13953C129.561 3.80944 130.637 4.65261 131.572 5.64137C132.39 6.50233 133.066 7.49006 133.573 8.56684H136.583V17.7248H125.683V15.0587Z" fill="#CAFB42"/>
<path d="M141.214 2.11035H177.514V17.7871H167.702V11.2683H155.993V20.3343H165.053V29.128H155.993V39.7709H167.702V31.6137H177.514V48.0826H141.214V39.7709H146.005V11.2683H141.218L141.214 2.11035Z" fill="#CAFB42"/>
</svg>
