<svg width="199" height="67" viewBox="0 0 199 67" fill="none" xmlns="http://www.w3.org/2000/svg">
<path d="M29.0737 0.708378C27.8604 -0.275066 13.9059 8.78775 10.7981 24.2602C10.2489 26.9987 8.17628 37.3152 14.2556 44.6618C15.0934 45.6745 17.8687 48.9349 22.6532 50.1356C23.7753 50.4177 30.0552 51.9923 34.6681 47.9742C39.8699 43.4547 38.4678 35.7622 38.2908 34.8706C37.305 29.8994 33.8603 26.5168 30.7171 23.4259C26.8262 19.6002 25.5475 20.0109 24.4608 17.7868C21.1621 11.0432 30.17 1.59888 29.0737 0.708378Z" fill="#1FB622"/>
<path fill-rule="evenodd" clip-rule="evenodd" d="M54.425 20.111C50.9235 9.51903 41.288 -1.66954 34.8321 0.207649C31.4765 1.18569 29.3953 5.57228 28.742 8.501C27.8248 12.6369 29.2902 16.0281 29.73 16.9597C30.8534 19.3367 32.2121 20.3277 33.9674 21.6081C35.4689 22.7034 37.2608 24.0105 39.4439 26.578L39.4561 26.5924C41.6385 29.1597 43.5763 31.4392 44.2188 35.0367C44.34 35.7143 45.4342 42.2731 41.9134 45.3207C41.3361 45.8194 40.7154 46.1556 40.1702 46.451C39.3282 46.9072 38.666 47.2659 38.6211 47.9749C38.5578 48.9476 39.7153 49.9332 40.7612 50.2941C41.8072 50.6551 43.2404 50.5751 45.5361 49.1334C52.6088 44.696 55.0837 37.0295 55.0837 37.0295C57.4727 29.6277 55.4237 23.137 54.425 20.111ZM40.7035 13.4968C40.7035 14.3515 40.0157 15.0444 39.1673 15.0444C38.3189 15.0444 37.6311 14.3515 37.6311 13.4968C37.6311 12.6421 38.3189 11.9492 39.1673 11.9492C40.0157 11.9492 40.7035 12.6421 40.7035 13.4968Z" fill="#1FB622"/>
<path d="M17.1191 66.056C17.9451 66.056 18.6241 65.643 18.6241 64.817C18.6241 64.012 18.0291 63.711 17.2661 63.536L16.6781 63.396C16.0201 63.242 15.6771 63.004 15.6771 62.458C15.6771 61.877 16.1881 61.569 16.7901 61.569C17.5321 61.569 18.0501 61.912 18.2671 62.584L18.5471 62.353C18.2881 61.646 17.6651 61.254 16.7901 61.254C16.0201 61.254 15.3201 61.674 15.3201 62.479C15.3201 63.263 15.8941 63.557 16.5801 63.711L17.1331 63.837C17.9241 64.019 18.2811 64.264 18.2811 64.831C18.2811 65.496 17.7281 65.741 17.1191 65.741C16.4751 65.741 15.6981 65.44 15.4531 64.607L15.1941 64.831C15.4881 65.699 16.3001 66.056 17.1191 66.056ZM22.3978 66V64.012H23.3288C23.7838 64.012 24.0988 64.208 24.2808 64.523L25.1628 66H25.5688L24.6798 64.523C24.4978 64.229 24.3018 64.054 24.0568 63.984C24.9388 63.949 25.4708 63.494 25.4708 62.675C25.4708 61.772 24.8478 61.31 23.9028 61.31H22.0618V66H22.3978ZM23.8608 61.611C24.6168 61.611 25.1278 61.926 25.1278 62.675C25.1278 63.417 24.6168 63.725 23.8678 63.725H22.3978V61.611H23.8608ZM29.1911 66V61.31H28.8551V66H29.1911ZM38.6799 66.056C39.5059 66.056 40.1849 65.643 40.1849 64.817C40.1849 64.012 39.5899 63.711 38.8269 63.536L38.2389 63.396C37.5809 63.242 37.2379 63.004 37.2379 62.458C37.2379 61.877 37.7489 61.569 38.3509 61.569C39.0929 61.569 39.6109 61.912 39.8279 62.584L40.1079 62.353C39.8489 61.646 39.2259 61.254 38.3509 61.254C37.5809 61.254 36.8809 61.674 36.8809 62.479C36.8809 63.263 37.4549 63.557 38.1409 63.711L38.6939 63.837C39.4849 64.019 39.8419 64.264 39.8419 64.831C39.8419 65.496 39.2889 65.741 38.6799 65.741C38.0359 65.741 37.2589 65.44 37.0139 64.607L36.7549 64.831C37.0489 65.699 37.8609 66.056 38.6799 66.056ZM43.3862 66L44.0022 64.453H46.1512L46.7602 66H47.1382L45.2552 61.31H44.9052L43.0222 66H43.3862ZM44.8212 62.381L45.0732 61.66L45.3322 62.381L46.0322 64.152H44.1212L44.8212 62.381ZM50.499 66V64.012H51.43C51.885 64.012 52.2 64.208 52.382 64.523L53.264 66H53.67L52.781 64.523C52.599 64.229 52.403 64.054 52.158 63.984C53.04 63.949 53.572 63.494 53.572 62.675C53.572 61.772 52.949 61.31 52.004 61.31H50.163V66H50.499ZM51.962 61.611C52.718 61.611 53.229 61.926 53.229 62.675C53.229 63.417 52.718 63.725 51.969 63.725H50.499V61.611H51.962ZM56.7746 66L57.3906 64.453H59.5396L60.1486 66H60.5266L58.6436 61.31H58.2936L56.4106 66H56.7746ZM58.2096 62.381L58.4616 61.66L58.7206 62.381L59.4206 64.152H57.5096L58.2096 62.381ZM65.3853 66C66.4003 66 66.9463 65.531 66.9463 64.747C66.9463 64.173 66.6033 63.669 65.6023 63.564C66.4773 63.473 66.7363 62.976 66.7363 62.5C66.7363 61.786 66.2743 61.31 65.2803 61.31H63.5513V66H65.3853ZM65.1753 61.611C65.8753 61.611 66.3933 61.828 66.3933 62.535C66.3933 63.228 65.8683 63.445 65.1193 63.445H63.8873V61.611H65.1753ZM65.1893 63.739C66.0013 63.739 66.6033 64.026 66.6033 64.712C66.6033 65.405 66.1623 65.699 65.3293 65.699H63.8873V63.739H65.1893ZM70.7763 66V63.774H73.5203V66H73.8563V61.31H73.5203V63.473H70.7763V61.31H70.4403V66H70.7763ZM80.7924 66V65.699H78.0344V63.774H80.3374V63.473H78.0344V61.611H80.7924V61.31H77.6984V66H80.7924ZM85.6586 66.056C86.4846 66.056 87.1636 65.643 87.1636 64.817C87.1636 64.012 86.5686 63.711 85.8056 63.536L85.2176 63.396C84.5596 63.242 84.2166 63.004 84.2166 62.458C84.2166 61.877 84.7276 61.569 85.3296 61.569C86.0716 61.569 86.5896 61.912 86.8066 62.584L87.0866 62.353C86.8276 61.646 86.2046 61.254 85.3296 61.254C84.5596 61.254 83.8596 61.674 83.8596 62.479C83.8596 63.263 84.4336 63.557 85.1196 63.711L85.6726 63.837C86.4636 64.019 86.8206 64.264 86.8206 64.831C86.8206 65.496 86.2676 65.741 85.6586 65.741C85.0146 65.741 84.2376 65.44 83.9926 64.607L83.7336 64.831C84.0276 65.699 84.8396 66.056 85.6586 66.056ZM91.843 66L92.935 62.493L93.173 61.618L93.418 62.493L94.496 66H94.902L96.295 61.31H95.91L94.888 64.873L94.706 65.671L94.496 64.88L93.397 61.31H92.963L91.85 64.88L91.64 65.671L91.465 64.873L90.45 61.31H90.058L91.444 66H91.843ZM99.0792 66L99.6952 64.453H101.844L102.453 66H102.831L100.948 61.31H100.598L98.7152 66H99.0792ZM100.514 62.381L100.766 61.66L101.025 62.381L101.725 64.152H99.8142L100.514 62.381ZM106.192 66V64.012H107.123C107.578 64.012 107.893 64.208 108.075 64.523L108.957 66H109.363L108.474 64.523C108.292 64.229 108.096 64.054 107.851 63.984C108.733 63.949 109.265 63.494 109.265 62.675C109.265 61.772 108.642 61.31 107.697 61.31H105.856V66H106.192ZM107.655 61.611C108.411 61.611 108.922 61.926 108.922 62.675C108.922 63.417 108.411 63.725 107.662 63.725H106.192V61.611H107.655ZM119.952 66V65.699H117.194V63.774H119.497V63.473H117.194V61.611H119.952V61.31H116.858V66H119.952ZM123.564 66V62.304L123.543 61.863L123.823 62.29L126.336 66H126.644V61.31H126.308V64.936L126.329 65.461L125.979 64.922L123.536 61.31H123.228V66H123.564ZM132.05 66.056C133.128 66.056 133.688 65.272 133.793 64.04L133.912 66H134.108V63.739H132.071V64.04H133.737C133.534 65.125 133.114 65.741 132.134 65.741C131.049 65.741 130.454 64.873 130.454 63.648C130.454 62.423 131.063 61.555 132.197 61.555C133.114 61.555 133.597 62.094 133.793 62.836L134.08 62.64C133.828 61.807 133.219 61.24 132.197 61.24C130.867 61.24 130.104 62.248 130.104 63.648C130.104 65.069 130.818 66.056 132.05 66.056ZM138.039 66V61.31H137.703V66H138.039ZM142.214 66V62.304L142.193 61.863L142.473 62.29L144.986 66H145.294V61.31H144.958V64.936L144.979 65.461L144.629 64.922L142.186 61.31H141.878V66H142.214ZM152.23 66V65.699H149.472V63.774H151.775V63.473H149.472V61.611H152.23V61.31H149.136V66H152.23ZM158.6 66V65.699H155.842V63.774H158.145V63.473H155.842V61.611H158.6V61.31H155.506V66H158.6ZM162.211 66V64.012H163.142C163.597 64.012 163.912 64.208 164.094 64.523L164.976 66H165.382L164.493 64.523C164.311 64.229 164.115 64.054 163.87 63.984C164.752 63.949 165.284 63.494 165.284 62.675C165.284 61.772 164.661 61.31 163.716 61.31H161.875V66H162.211ZM163.674 61.611C164.43 61.611 164.941 61.926 164.941 62.675C164.941 63.417 164.43 63.725 163.681 63.725H162.211V61.611H163.674ZM169.005 66V61.31H168.669V66H169.005ZM173.18 66V62.304L173.159 61.863L173.439 62.29L175.952 66H176.26V61.31H175.924V64.936L175.945 65.461L175.595 64.922L173.152 61.31H172.844V66H173.18ZM181.666 66.056C182.744 66.056 183.304 65.272 183.409 64.04L183.528 66H183.724V63.739H181.687V64.04H183.353C183.15 65.125 182.73 65.741 181.75 65.741C180.665 65.741 180.07 64.873 180.07 63.648C180.07 62.423 180.679 61.555 181.813 61.555C182.73 61.555 183.213 62.094 183.409 62.836L183.696 62.64C183.444 61.807 182.835 61.24 181.813 61.24C180.483 61.24 179.72 62.248 179.72 63.648C179.72 65.069 180.434 66.056 181.666 66.056Z" fill="#1FB622"/>
<path d="M88.2086 15.0587C88.1061 14.3465 87.8549 13.6644 87.4716 13.0572C87.0764 12.4267 86.5669 11.8768 85.9697 11.4361C84.6606 10.4772 83.0828 9.96209 81.4642 9.96528C80.7448 9.96028 80.0274 10.0419 79.3272 10.2084C78.711 10.3497 78.1249 10.6011 77.5968 10.9509C77.1067 11.2792 76.702 11.7214 76.4168 12.2402C76.1136 12.8185 75.9636 13.4658 75.9813 14.1195C75.9813 15.0295 76.1769 15.7521 76.5681 16.2874C76.9677 16.8318 77.4802 17.2821 78.0699 17.607C78.7108 17.9629 79.3929 18.2377 80.1007 18.4251C80.843 18.6282 81.5657 18.8509 82.2687 19.0929L90.5462 21.8822C91.6897 22.287 92.7726 22.8481 93.7644 23.5498C94.7678 24.258 95.6476 25.129 96.368 26.1273C97.1258 27.1893 97.7099 28.3667 98.0984 29.6147C98.5203 30.9288 98.731 32.4058 98.7302 34.0456C98.7302 36.2697 98.324 38.3014 97.5116 40.1408C96.7231 41.9465 95.5578 43.5598 94.0948 44.8711C92.6309 46.1852 90.8751 47.2061 88.8276 47.9338C86.78 48.6615 84.5126 49.0253 82.0252 49.0253C80.357 49.0348 78.6941 48.8363 77.0744 48.4342C75.5824 48.0658 74.1488 47.4889 72.8156 46.7201C71.5649 46.0004 70.4284 45.0959 69.4439 44.0368C68.4884 43.0055 67.7252 41.8091 67.1911 40.505H64.0994V31.3719H74.9954V33.2524C74.9862 34.1108 75.1338 34.9636 75.4309 35.7683C75.7138 36.5255 76.1614 37.2094 76.7408 37.7697C77.3696 38.3647 78.1192 38.8149 78.9378 39.0893C79.8203 39.4027 80.8537 39.5594 82.0381 39.5594C83.8446 39.5594 85.2192 39.1397 86.1618 38.3004C87.1044 37.461 87.576 36.2938 87.5767 34.7989C87.5767 34.0301 87.4112 33.3882 87.0801 32.873C86.7464 32.355 86.3109 31.9114 85.8003 31.5697C85.2553 31.2035 84.6695 30.9032 84.0549 30.6749C83.4112 30.4321 82.779 30.2098 82.1582 30.0081L75.2657 27.7656C73.9439 27.3536 72.6758 26.7836 71.4885 26.0678C70.2756 25.3406 69.1886 24.4189 68.2703 23.339C67.3098 22.2018 66.5556 20.9032 66.0421 19.5025C65.4907 18.0385 65.215 16.366 65.215 14.4848C65.215 12.3018 65.6162 10.3565 66.4187 8.64898C67.1998 6.96735 68.3532 5.48852 69.7904 4.32615C71.2343 3.15466 72.9507 2.26524 74.9396 1.65788C76.9285 1.05053 79.1041 0.747205 81.4663 0.747926C83.2129 0.731578 84.954 0.949637 86.6434 1.39635C88.1314 1.7909 89.5628 2.37678 90.9023 3.13953C92.0835 3.8101 93.1591 4.654 94.0938 5.64353C94.9122 6.50423 95.5877 7.49202 96.0945 8.56901H99.1046V17.7269H88.2086V15.0587Z" fill="#1FB622"/>
<path d="M125.683 15.0587C125.581 14.3464 125.329 13.6641 124.945 13.0572C124.55 12.4264 124.041 11.8764 123.443 11.4361C122.134 10.4771 120.556 9.96208 118.938 9.96528C118.218 9.96034 117.501 10.042 116.801 10.2084C116.185 10.3497 115.599 10.6011 115.07 10.9509C114.583 11.2799 114.18 11.722 113.897 12.2402C113.605 12.7654 113.46 13.3918 113.46 14.1195C113.46 15.0295 113.656 15.7521 114.047 16.2874C114.447 16.8316 114.959 17.2818 115.549 17.607C116.19 17.9631 116.873 18.2379 117.581 18.4251C118.323 18.6282 119.045 18.8509 119.748 19.0929L128.025 21.8822C129.169 22.2867 130.252 22.8478 131.243 23.5498C132.247 24.258 133.127 25.129 133.847 26.1273C134.605 27.1893 135.19 28.3666 135.578 29.6147C135.999 30.9288 136.21 32.4058 136.21 34.0456C136.21 36.2697 135.804 38.3014 134.991 40.1408C134.203 41.9465 133.038 43.5599 131.575 44.8711C130.11 46.1852 128.353 47.2061 126.307 47.9338C124.26 48.6614 121.993 49.0235 119.507 49.0199C117.839 49.0294 116.176 48.8309 114.557 48.4287C113.065 48.0602 111.631 47.4833 110.298 46.7147C109.047 45.995 107.911 45.0905 106.926 44.0313C105.971 43 105.207 41.8037 104.673 40.4996H101.573V31.3719H112.469V33.2524C112.46 34.1109 112.608 34.9638 112.906 35.7682C113.189 36.5253 113.636 37.2091 114.214 37.7697C114.843 38.3644 115.593 38.8146 116.411 39.0893C117.294 39.4027 118.327 39.5594 119.512 39.5594C121.318 39.5594 122.693 39.1397 123.635 38.3003C124.578 37.461 125.05 36.2938 125.05 34.7989C125.05 34.0301 124.885 33.3882 124.554 32.873C124.22 32.355 123.785 31.9114 123.275 31.5697C122.729 31.2037 122.143 30.9034 121.529 30.6749C120.885 30.4321 120.253 30.2098 119.633 30.0081L112.739 27.7656C111.418 27.3533 110.15 26.7834 108.962 26.0678C107.749 25.3406 106.662 24.4189 105.744 23.339C104.784 22.2018 104.03 20.9031 103.517 19.5025C102.964 18.0385 102.688 16.3659 102.689 14.4848C102.689 12.3018 103.09 10.3565 103.892 8.64898C104.673 6.96735 105.827 5.48852 107.264 4.32615C108.709 3.15466 110.425 2.26524 112.413 1.65788C114.401 1.05053 116.578 0.747205 118.944 0.747926C120.691 0.731578 122.432 0.949637 124.121 1.39635C125.609 1.7909 127.041 2.37678 128.38 3.13953C129.561 3.80944 130.637 4.65261 131.572 5.64137C132.39 6.50233 133.066 7.49006 133.573 8.56684H136.583V17.7248H125.683V15.0587Z" fill="#1FB622"/>
<path d="M141.214 2.11035H177.514V17.7871H167.702V11.2683H155.993V20.3343H165.053V29.128H155.993V39.7709H167.702V31.6137H177.514V48.0826H141.214V39.7709H146.005V11.2683H141.218L141.214 2.11035Z" fill="#1FB622"/>
</svg>
