<svg width="81" height="107" viewBox="0 0 81 107" fill="none" xmlns="http://www.w3.org/2000/svg">
<g clip-path="url(#clip0_1_114)">
<g clip-path="url(#clip1_1_114)">
<path d="M80.5998 100.112V7.47598C80.5998 3.81805 77.6069 0.825195 73.949 0.825195H27.2035C23.5456 0.825195 20.5527 3.81805 20.5527 7.47598V13.9367H2.26304C1.36043 13.9367 0.600342 14.6968 0.600342 15.5994V26.3357C0.600342 26.5732 0.647847 26.7633 0.742859 26.9533C0.83787 27.1433 0.932881 27.3333 1.1229 27.4758L20.2202 46.5731C18.3199 48.5208 17.1323 51.3237 17.1323 54.4115C17.1323 57.7844 18.5575 60.7773 20.7427 62.725C20.6952 62.915 20.6477 63.105 20.6477 63.2951V100.112C20.6477 103.77 23.6406 106.763 27.2985 106.763H74.044C77.6069 106.763 80.5998 103.77 80.5998 100.112ZM3.92573 17.2621H34.9469V24.673H3.92573V17.2621ZM63.4503 39.4473C63.5928 39.5898 63.7828 39.6848 63.9728 39.7323V61.6799H57.037C56.8945 61.5849 56.7995 61.5374 56.657 61.4899C53.9016 60.7773 51.9539 57.7844 51.9539 54.459C51.9539 51.0861 53.9491 48.1408 56.657 47.4282C57.322 47.2382 57.7496 46.7156 57.8446 46.0505C57.8921 46.003 57.9871 45.9555 58.0346 45.908C58.6522 45.2429 58.6047 44.1978 57.9396 43.5327L38.2723 25.6231V19.0674L63.4503 39.4473ZM36.2295 65.0053H39.2699H54.5192H63.9728V67.6181H36.2295V65.0053ZM35.9445 27.9984L53.3791 43.9128H26.3959C25.1607 43.9128 24.0206 44.1978 22.928 44.6729L6.30101 27.9984H35.9445ZM20.4102 54.459C20.4102 50.4686 23.118 47.2382 26.3959 47.2382H51.0988C49.5311 49.1384 48.581 51.7037 48.581 54.459C48.581 57.2144 49.5311 59.7797 51.0988 61.6799H39.2699H34.5669H26.3959C23.118 61.6799 20.4102 58.4495 20.4102 54.459ZM23.8781 100.112V64.6252C24.6857 64.8628 25.4933 65.0053 26.3959 65.0053H32.9042V69.2808C32.9042 70.1834 33.6642 70.9435 34.5669 70.9435H63.9728V77.5943C63.9728 78.4969 64.7329 79.257 65.6355 79.257C66.5381 79.257 67.2982 78.4969 67.2982 77.5943V69.2808V63.3426V39.0672V25.7181C67.2982 24.8155 66.5381 24.0554 65.6355 24.0554C64.7329 24.0554 63.9728 24.8155 63.9728 25.7181V35.5993L37.6547 14.3168C37.6072 14.2693 37.5122 14.2693 37.4647 14.2218C37.3697 14.1743 37.2747 14.0793 37.1797 14.0793C37.0846 14.0318 36.9421 14.0318 36.8471 14.0318C36.7996 14.0318 36.7046 13.9842 36.6571 13.9842H23.8781V7.47598C23.8781 5.62326 25.3508 4.15059 27.2035 4.15059H73.949C75.8017 4.15059 77.2744 5.62326 77.2744 7.47598V100.112C77.2744 101.965 75.8017 103.437 73.949 103.437H27.2035C25.3983 103.437 23.8781 101.965 23.8781 100.112Z" fill="#CAFB42"/>
<path d="M50.5763 85.7178C47.3934 85.7178 44.7806 88.3306 44.7806 91.5135C44.7806 94.6963 47.3934 97.3091 50.5763 97.3091C53.7591 97.3091 56.3719 94.6963 56.3719 91.5135C56.3719 88.3306 53.7591 85.7178 50.5763 85.7178ZM50.5763 93.9362C49.2461 93.9362 48.106 92.8436 48.106 91.466C48.106 90.0883 49.1986 88.9957 50.5763 88.9957C51.9539 88.9957 53.0466 90.0883 53.0466 91.466C53.0466 92.8436 51.9539 93.9362 50.5763 93.9362Z" fill="#CAFB42"/>
<path d="M50.5763 8.94873C47.3934 8.94873 44.7806 11.5615 44.7806 14.7444C44.7806 17.9273 47.3934 20.5401 50.5763 20.5401C53.7591 20.5401 56.3719 17.9273 56.3719 14.7444C56.3719 11.5615 53.7591 8.94873 50.5763 8.94873ZM50.5763 17.2147C49.2461 17.2147 48.106 16.1221 48.106 14.7444C48.106 13.3668 49.1986 12.2741 50.5763 12.2741C51.9539 12.2741 53.0466 13.3668 53.0466 14.7444C53.0466 16.1221 51.9539 17.2147 50.5763 17.2147Z" fill="#CAFB42"/>
</g>
</g>
<defs>
<clipPath id="clip0_1_114">
<rect width="80" height="105.938" fill="white" transform="translate(0.600037 0.825195)"/>
</clipPath>
<clipPath id="clip1_1_114">
<rect width="79.9994" height="105.938" fill="white" transform="translate(0.600342 0.825195)"/>
</clipPath>
</defs>
</svg>
