<svg width="30" height="30" viewBox="0 0 30 30" fill="none" xmlns="http://www.w3.org/2000/svg">
<path d="M15 6.5625C13.3312 6.5625 11.6999 7.05735 10.3124 7.98448C8.92484 8.9116 7.84338 10.2294 7.20477 11.7711C6.56615 13.3129 6.39906 15.0094 6.72462 16.6461C7.05019 18.2828 7.85378 19.7862 9.03379 20.9662C10.2138 22.1462 11.7172 22.9498 13.3539 23.2754C14.9906 23.6009 16.6871 23.4338 18.2289 22.7952C19.7706 22.1566 21.0884 21.0752 22.0155 19.6876C22.9426 18.3001 23.4375 16.6688 23.4375 15C23.4344 12.7632 22.5445 10.6189 20.9628 9.03721C19.3811 7.45554 17.2368 6.5656 15 6.5625ZM15 20.625C13.8875 20.625 12.7999 20.2951 11.8749 19.677C10.9499 19.0589 10.2289 18.1804 9.80318 17.1526C9.37743 16.1248 9.26604 14.9938 9.48308 13.9026C9.70012 12.8115 10.2359 11.8092 11.0225 11.0225C11.8092 10.2359 12.8115 9.70012 13.9026 9.48308C14.9938 9.26604 16.1248 9.37743 17.1526 9.80318C18.1804 10.2289 19.0589 10.9499 19.677 11.8749C20.2951 12.7999 20.625 13.8875 20.625 15C20.625 16.4918 20.0324 17.9226 18.9775 18.9775C17.9226 20.0324 16.4918 20.625 15 20.625ZM13.5938 3.28125V1.40625C13.5938 1.03329 13.7419 0.675604 14.0056 0.411881C14.2694 0.148158 14.627 0 15 0C15.373 0 15.7306 0.148158 15.9944 0.411881C16.2581 0.675604 16.4062 1.03329 16.4062 1.40625V3.28125C16.4062 3.65421 16.2581 4.0119 15.9944 4.27562C15.7306 4.53934 15.373 4.6875 15 4.6875C14.627 4.6875 14.2694 4.53934 14.0056 4.27562C13.7419 4.0119 13.5938 3.65421 13.5938 3.28125ZM22.2891 7.71094C22.158 7.58029 22.0539 7.42505 21.983 7.25412C21.912 7.08319 21.8755 6.89993 21.8755 6.71484C21.8755 6.52976 21.912 6.3465 21.983 6.17557C22.0539 6.00464 22.158 5.8494 22.2891 5.71875L23.6133 4.39453C23.8775 4.13035 24.2358 3.98194 24.6094 3.98194C24.983 3.98194 25.3413 4.13035 25.6055 4.39453C25.8696 4.65871 26.0181 5.01702 26.0181 5.39062C26.0181 5.76423 25.8696 6.12254 25.6055 6.38672L24.2812 7.71094C24.1503 7.84141 23.995 7.9448 23.824 8.01518C23.6531 8.08556 23.47 8.12155 23.2852 8.12109C22.9123 8.11948 22.5549 7.9723 22.2891 7.71094ZM30 15C30 15.373 29.8518 15.7306 29.5881 15.9944C29.3244 16.2581 28.9667 16.4062 28.5938 16.4062H26.7188C26.3458 16.4062 25.9881 16.2581 25.7244 15.9944C25.4607 15.7306 25.3125 15.373 25.3125 15C25.3125 14.627 25.4607 14.2694 25.7244 14.0056C25.9881 13.7419 26.3458 13.5938 26.7188 13.5938H28.5938C28.9667 13.5938 29.3244 13.7419 29.5881 14.0056C29.8518 14.2694 30 14.627 30 15ZM25.6055 23.6133C25.7366 23.7439 25.8406 23.8992 25.9116 24.0701C25.9825 24.241 26.0191 24.4243 26.0191 24.6094C26.0191 24.7945 25.9825 24.9777 25.9116 25.1487C25.8406 25.3196 25.7366 25.4748 25.6055 25.6055C25.4761 25.7381 25.3211 25.8429 25.1498 25.9134C24.9785 25.984 24.7946 26.0187 24.6094 26.0156C24.4245 26.0161 24.2414 25.9801 24.0705 25.9097C23.8996 25.8393 23.7442 25.7359 23.6133 25.6055L22.2891 24.2812C22.0249 24.0171 21.8765 23.6588 21.8765 23.2852C21.8765 22.9115 22.0249 22.5532 22.2891 22.2891C22.5532 22.0249 22.9115 21.8765 23.2852 21.8765C23.6588 21.8765 24.0171 22.0249 24.2812 22.2891L25.6055 23.6133ZM16.4062 26.7188V28.5938C16.4062 28.9667 16.2581 29.3244 15.9944 29.5881C15.7306 29.8518 15.373 30 15 30C14.627 30 14.2694 29.8518 14.0056 29.5881C13.7419 29.3244 13.5938 28.9667 13.5938 28.5938V26.7188C13.5938 26.3458 13.7419 25.9881 14.0056 25.7244C14.2694 25.4607 14.627 25.3125 15 25.3125C15.373 25.3125 15.7306 25.4607 15.9944 25.7244C16.2581 25.9881 16.4062 26.3458 16.4062 26.7188ZM7.71094 22.2891C7.84204 22.4197 7.94606 22.5749 8.01703 22.7459C8.08801 22.9168 8.12455 23.1001 8.12455 23.2852C8.12455 23.4702 8.08801 23.6535 8.01703 23.8244C7.94606 23.9954 7.84204 24.1506 7.71094 24.2812L6.38672 25.6055C6.25579 25.7359 6.10042 25.8393 5.9295 25.9097C5.75858 25.9801 5.57547 26.0161 5.39062 26.0156C5.20541 26.0187 5.02151 25.984 4.85022 25.9134C4.67893 25.8429 4.52386 25.7381 4.39453 25.6055C4.26343 25.4748 4.15941 25.3196 4.08843 25.1487C4.01746 24.9777 3.98092 24.7945 3.98092 24.6094C3.98092 24.4243 4.01746 24.241 4.08843 24.0701C4.15941 23.8992 4.26343 23.7439 4.39453 23.6133L5.71875 22.2891C5.8494 22.158 6.00464 22.0539 6.17557 21.983C6.3465 21.912 6.52976 21.8755 6.71484 21.8755C6.89993 21.8755 7.08319 21.912 7.25412 21.983C7.42505 22.0539 7.58029 22.158 7.71094 22.2891ZM3.28125 16.4062H1.40625C1.03329 16.4062 0.675604 16.2581 0.411881 15.9944C0.148158 15.7306 0 15.373 0 15C0 14.627 0.148158 14.2694 0.411881 14.0056C0.675604 13.7419 1.03329 13.5938 1.40625 13.5938H3.28125C3.65421 13.5938 4.0119 13.7419 4.27562 14.0056C4.53934 14.2694 4.6875 14.627 4.6875 15C4.6875 15.373 4.53934 15.7306 4.27562 15.9944C4.0119 16.2581 3.65421 16.4062 3.28125 16.4062ZM4.39453 6.38672C4.13035 6.12254 3.98194 5.76423 3.98194 5.39062C3.98194 5.01702 4.13035 4.65871 4.39453 4.39453C4.65871 4.13035 5.01702 3.98194 5.39062 3.98194C5.76423 3.98194 6.12254 4.13035 6.38672 4.39453L7.71094 5.71875C7.84204 5.8494 7.94606 6.00464 8.01703 6.17557C8.08801 6.3465 8.12455 6.52976 8.12455 6.71484C8.12455 6.89993 8.08801 7.08319 8.01703 7.25412C7.94606 7.42505 7.84204 7.58029 7.71094 7.71094C7.44508 7.9723 7.08765 8.11948 6.71484 8.12109C6.53 8.12155 6.34689 8.08556 6.17597 8.01518C6.00505 7.9448 5.84968 7.84141 5.71875 7.71094L4.39453 6.38672Z" fill="white"/>
</svg>
