<svg width="30" height="33" viewBox="0 0 30 33" fill="none" xmlns="http://www.w3.org/2000/svg">
<path d="M12.5 9.54369C12.4997 11.4397 13.0173 13.2927 13.9865 14.8666C14.9558 16.4405 16.3329 17.6638 17.9422 18.3805C19.5515 19.0972 21.3201 19.2749 23.0224 18.8909C24.7246 18.5068 26.2834 17.5785 27.5 16.2242V16.3606C27.5 23.8905 21.9037 29.9943 15 29.9943C8.09625 29.9943 2.5 23.8905 2.5 16.3606C2.5 8.83064 8.09625 2.72681 15 2.72681H15.125C14.2925 3.61454 13.6314 4.67502 13.1806 5.84578C12.7298 7.01653 12.4984 8.27387 12.5 9.54369ZM5 16.3606C4.99909 18.7942 5.74441 21.1582 7.11737 23.0765C8.49032 24.9948 10.412 26.3572 12.5768 26.9469C14.7415 27.5367 17.0249 27.3198 19.0636 26.3309C21.1023 25.342 22.7792 23.6379 23.8275 21.4896C21.9618 21.969 20.0147 21.9205 18.171 21.3488C16.3273 20.777 14.6481 19.701 13.2928 18.2227C11.9374 16.7444 10.9508 14.9129 10.4266 12.9019C9.90239 10.891 9.85796 8.76733 10.2975 6.73241C8.69697 7.66242 7.35848 9.04969 6.42532 10.7457C5.49216 12.4417 4.99947 14.3826 5 16.3606Z" fill="black"/>
</svg>
