<svg width="28" height="28" viewBox="0 0 28 28" fill="none" xmlns="http://www.w3.org/2000/svg">
<path fill-rule="evenodd" clip-rule="evenodd" d="M27.5 1.625C27.5 1.32663 27.3815 1.04048 27.1705 0.829505C26.9595 0.618527 26.6734 0.5 26.375 0.5H12.875C12.5766 0.5 12.2905 0.618527 12.0795 0.829505C11.8685 1.04048 11.75 1.32663 11.75 1.625C11.75 1.92337 11.8685 2.20952 12.0795 2.42049C12.2905 2.63147 12.5766 2.75 12.875 2.75H23.6593L0.828517 25.5785C0.723919 25.6831 0.640948 25.8073 0.58434 25.9439C0.527732 26.0806 0.498596 26.2271 0.498596 26.375C0.498596 26.5229 0.527732 26.6694 0.58434 26.8061C0.640948 26.9427 0.723919 27.0669 0.828517 27.1715C0.933115 27.2761 1.05729 27.3591 1.19395 27.4157C1.33062 27.4723 1.47709 27.5014 1.62502 27.5014C1.77294 27.5014 1.91942 27.4723 2.05608 27.4157C2.19274 27.3591 2.31692 27.2761 2.42152 27.1715L25.25 4.34075V15.125C25.25 15.4234 25.3685 15.7095 25.5795 15.9205C25.7905 16.1315 26.0766 16.25 26.375 16.25C26.6734 16.25 26.9595 16.1315 27.1705 15.9205C27.3815 15.7095 27.5 15.4234 27.5 15.125V1.625Z" fill="#CAFB42"/>
</svg>
